<svg width="19" height="12" viewBox="0 0 19 12" fill="none" xmlns="http://www.w3.org/2000/svg">
<path d="M15.8155 1.75572C15.8155 0.890178 15.0286 0.182007 14.0667 0.182007H11.4435V1.75572H14.0667V3.84089L11.0238 7.26372H7.94591V3.32943H4.4483C2.51587 3.32943 0.950684 4.73791 0.950684 6.47686V8.83743H2.69949C2.69949 10.1436 3.87119 11.198 5.3227 11.198C6.77421 11.198 7.94591 10.1436 7.94591 8.83743H11.8632L15.8155 4.39169V1.75572ZM5.3227 9.62429C4.84178 9.62429 4.4483 9.2702 4.4483 8.83743H6.1971C6.1971 9.2702 5.80362 9.62429 5.3227 9.62429Z" fill="black"/>
<path d="M7.94589 0.968872H3.57388V2.54257H7.94589V0.968872Z" fill="black"/>
<path d="M15.8155 6.47681C14.364 6.47681 13.1923 7.53119 13.1923 8.83737C13.1923 10.1436 14.364 11.1979 15.8155 11.1979C17.267 11.1979 18.4388 10.1436 18.4388 8.83737C18.4388 7.53119 17.267 6.47681 15.8155 6.47681ZM15.8155 9.62423C15.3346 9.62423 14.9411 9.27014 14.9411 8.83737C14.9411 8.4046 15.3346 8.05052 15.8155 8.05052C16.2965 8.05052 16.6899 8.4046 16.6899 8.83737C16.6899 9.27014 16.2965 9.62423 15.8155 9.62423Z" fill="black"/>
</svg>
